<svg width="36" height="38" viewBox="0 0 36 38" fill="none" xmlns="http://www.w3.org/2000/svg">
<path d="M0 36.9821V11.5029V1.37622C0 0.556649 0.926716 0.0802365 1.59323 0.557167L17.3594 11.8389C17.7099 12.0896 18.1811 12.0896 18.5316 11.8389L34.2978 0.557168C34.9643 0.0802374 35.8911 0.556649 35.8911 1.37622V36.9371C35.8911 37.8772 34.7171 38.3047 34.1126 37.5847L24.9553 26.6776C24.5811 26.232 23.9083 26.1952 23.4878 26.5973L18.656 31.2182C18.2609 31.596 17.6364 31.5897 17.2491 31.2038L12.6482 26.6205C12.2332 26.2071 11.5543 26.2337 11.1729 26.6783L1.77157 37.6378C1.1629 38.3474 0 37.9169 0 36.9821Z" fill="url(#paint0_linear)"/>
<defs>
<linearGradient id="paint0_linear" x1="17.6468" y1="3.07947" x2="17.6468" y2="39.703" gradientUnits="userSpaceOnUse">
<stop stop-color="#2DD4BF"/>
<stop offset="1" stop-color="#22D3EE"/>
</linearGradient>
</defs>
</svg>
